<svg width="458" height="352" fill="none" xmlns="http://www.w3.org/2000/svg"><path fill-rule="evenodd" clip-rule="evenodd" d="M182 56l-3 5h-3l-1 1h3l-6 11c-1 2 0 4 2 4l4-2-1 2h3l5-8c4-6 6-5 5-3l-4 7c-1 2 0 4 2 4l6-3c0 2 2 3 4 3 4 0 7-3 9-5l-1-2v1l-7 4c-2 0-3-1-2-3l1-1c2 1 5 1 8-3v-1c2-3 0-5-2-5-3 0-5 1-6 4l-3 5c-2 2-4 4-6 4v-1l4-8c2-2 0-4-1-4l-5 2 5-8h-3l-8 15-6 4v-1l6-12h3v-1h-2l3-5h-3zm-33 5l3-5h3l-3 5h3l-1 1h-2l-7 12c-1 1 0 1 1 1l5-4 2-3 1-2c2-3 4-4 6-4 3 0 4 3 3 6l-3 5 4-2 1-1 1 2-7 2c-3 5-9 4-9 0l-5 3c-3 0-4-2-2-4l6-11h-3l1-1h2zm11 6v-3c-1 0-2 0-3 2l-1 2-3 4c-1 3 2 4 3 2v-1-1l2-1 2-4zm44 0c1-2 0-3-1-3l-2 2-2 4c1 0 3 0 4-2l1-1zm43-8v5l-5 6v1l-5 2 3-5c2-3 0-6-3-6-2 0-4 1-6 4l-1 2-1 3h-1c-2 3-4 4-7 5l7-11h-2c0-1-1-3-3-3-1 0-4 1-5 4l-4 7c-1 2-1 4 2 4l3-1-1 1c-4 2-7 3-7 6 0 2 5 3 7-1l2-4c3 0 5-2 7-4 0 4 6 5 9 0h1l6-2 5-7v2l-3 6c-1 2 0 4 2 4l5-2c0 1 1 2 3 2l3-1-1 1c-4 2-7 3-7 6 0 2 5 3 7-1l2-4c3 0 5-2 8-4 0 2 1 3 4 3l7-3c-1 4 5 5 8 0h4c-1 2 0 3 2 3s3-1 5-3c0 2 1 3 2 3 3 0 6-3 8-5l4-5 1-1-1 4c-1 2-1 5-3 5l-1-1-2 1s0 2 3 2h1c3 0 6-3 9-5l-2-2v1l-3 3v-4l2-7-2-1-1 1-6 7v1c-2 2-4 4-6 4v-1l6-12h-3l-5 10-5 3 1-2 6-11h-3l-5 8v1l-5 2 3-5c2-3 0-6-3-6-2 0-4 1-6 4l-1 2-1 3c-3 2-5 4-8 4-1 0-2-1-1-3v-1c2 1 6 1 8-3l1-1c1-3 0-5-3-5-2 0-4 1-6 4l-2 5h-1c-2 3-4 4-7 5l7-11h-2c0-1-1-3-3-3-1 0-4 1-5 4l-3 4v1c-2 2-4 4-6 4v-1l3-6c1-1 0-3-1-4l-1-2v-1l-2-2zm-9 8c1-2 0-3-1-3s-2 0-3 2l-1 2-2 4c-2 3 1 4 3 2v-1l-1-1 2-1 3-4zm49-3c1 0 2 1 1 3l-3 4-1 1v2c-2 2-5 1-3-2l2-4 2-2c0-2 2-2 2-2zm-11 3v-3l-3 2-2 4c1 0 3 0 5-2v-1zm-53-2c1 0 2 0 1 2l-2 4c-2 3-4 4-5 4l-1-1 5-8 2-1zm40 2c1-2 0-2-1-2l-2 1-5 8 1 1c1 0 3-1 5-4l2-4zm-46 12c-3 1-3 2-3 3h1l2-3zm39 0zm0 0l-2 3h-1c0-1 0-2 3-3zM101 68h29v2h-29v-2zm256 0h-29v2h29v-2z" fill="#766458"/><path fill-rule="evenodd" clip-rule="evenodd" d="M195 37v8h-21V0h21v8h-13v11h10v7h-10v11h13zm21 8v-8h-10V0h-8v45h18zm107 0v-8h-14V26h11v-7h-11V8h14V0h-21v45h21zM297 0h-7l-7 22-7-22h-7v45h7V23l3 11h8l3-11v22h7V0zm-39 8h-6v29h6V8zm8-3c0-3-2-5-5-5h-11c-3 0-5 2-5 5v35c0 3 2 5 5 5h11c3 0 5-2 5-5V5zm-33 24l8-2v13c0 3-3 5-5 5h-11c-3 0-5-2-5-5V5c0-3 2-5 5-5h11c2 0 5 2 5 5v9l-8 2V8h-6v29h6v-8zM170 0h-7l-1 37h-1l-5-37h-7l-5 37h-1V0h-8l1 45h15l2-18 2 18h14l1-45z" fill="#81B3D3"/><path fill-rule="evenodd" clip-rule="evenodd" d="M10 190l7 7 9 3h3l4-1 2-3h1v-1a14 14 0 000-3l-2-5a20 20 0 00-9-4h-2v-1c-4 0-8-2-11-4s-6-5-7-9a100 100 0 01-1-6v-3-1l1-5 3-4c2-4 5-7 9-9a30 30 0 0119-2l8 2 8 4-7 14-6-4-8-2h-1l-5 3-2 4v2l1 1a10 10 0 005 3 203 203 0 0013 4c4 2 7 4 10 8 2 3 3 7 3 11v3l-4 12a21 21 0 01-13 10 82 82 0 01-7 1l-4 1h-1a39 39 0 01-26-11l10-15zm216-46c-7 3-12 8-15 15a37 37 0 00-4 12 23 23 0 00-1 6 39 39 0 0021 34 38 38 0 0015 5h3c8 0 15-2 22-6a37 37 0 0013-51 36 36 0 00-20-18 41 41 0 00-34 3zm73 70v-74h19l28 38 2 3 2 4 1 3 2 3-1-2a271 271 0 010-13v-36h19v74h-19l-28-38-3-4a66 66 0 01-4-9 111 111 0 011 14v37h-19zm107-74l-25 74h20l4-13h28l4 13h20l-26-74h-25zm3 46l7-24a50 50 0 002-7v-1a40 40 0 011-2 41 41 0 010 2 86 86 0 002 8l8 24h-20zm-145 0v-3a15 15 0 001-4 11 11 0 000-3v-1l-3-10-7-7a31 31 0 00-5-2 24 24 0 00-4-1c-4 0-8 2-11 4-4 3-6 6-7 10v1l-1 2-1 2v5l4 12c2 4 6 6 10 7l1 1h4c4 0 8-1 11-4 4-2 6-5 8-9zm-94 26l11-5c5-3 8-7 11-13l4-15v-3-2c-1-5-2-10-5-15-2-5-5-9-10-12-3-3-7-4-11-5a73 73 0 00-16-2h-25v74h28l13-2zm-21-15h1l1 1h3a270 270 0 009-2l5-2c3-2 4-4 5-7 2-3 2-7 2-10v-1-1l-2-8-5-7-5-3h-14v40zm-80-57v74h45v-17H89v-12h24v-16H89v-13h25v-16H69zm282 196v1l1 2h2l-1 1v1l-1 1h-1l1 2h1a12 12 0 001-1 6 6 0 003-3v-2-1l-1-1-1-1h-1a3 3 0 00-2 1h-1zm8 1a2 2 0 011-1 3 3 0 012-1h1l1 1 1 1v1a6 6 0 01-2 4l-1 1a8 8 0 01-1 1h-1l-1-2h1l1-1v-1l1-1h-2l-1-2zM94 279h1l-1-2-2-1v-1h1l1-1h1l-2-2a14 14 0 00-2 1 6 6 0 00-2 5v1l1 1 1 1h1l2-1v-1zm-7 0a2 2 0 01-2 2h-1-1l-1-1-1-1v-1a6 6 0 013-6h2l1 2h-1l-1 1-1 1 2 1 1 2zm249 56h-4l12-20h4l-12 20zm-4 2l-2 2 2 2 2-2-2-2zm-25-8l-1 2c0 3 4 1 5-1l2-3c1-2-2-4-6 2zm24 5l-2-1-5 4 1-5 3-9-3-1-1 1-8 10c-3 3-5 6-7 6-1 0-2-1-2-3v-1c3 0 6-2 8-5l1-1c3-6-3-8-6-5l5-9h-4l-11 18c-3 3-7 6-9 6-3 0-4-1-2-5l4-6c2-4 6-3 3 1h3c2-4 1-7-3-7-3 0-5 2-7 5l-3 6h-1c-3 3-5 6-7 6v-2l8-14h-4l-7 12c-3 2-5 4-6 3l1-2 7-13h-4l-7 12-2 2h-1l1-5 2-9-3-1a501 501 0 01-1 5l-1 5c-1 3-1 6-3 6l-2-1-3 1s1 3 5 3h1l6-2c0 1 1 2 3 2l6-3c-1 2 1 3 3 3l7-4c0 2 2 4 6 4 3 0 6-1 8-4l-2 4h4l4-8v3c0 4 1 5 4 5s7-3 10-7a95 95 0 005-7l-1 5c0 3-1 6-3 6l-2-1-2 1s0 3 4 3h1c4 0 8-3 11-7zm-115-1l3-4c2-4-2-6-4-2l-2 3-3 5c-2 4 2 5 4 2v-1c0-2 1-3 2-3zm-25 14c-1 2-2 2-2 1s0-3 3-4l-1 3zm-35-8c1 0 4-2 6-5l3-6c2-3-2-4-4 0l-6 9c-1 1 0 2 1 2zm-6-20l3-3c2 0 2 1 2 2 0 4-4 11-10 10h-1l6-9zm92 14h1l1 1c-3 4-7 7-10 7s-4-2-2-5l4-9c2-2 0-3-6 4l-6 10h-4l3-4-5 1h-1c-4 5-11 4-11-1l-9 6-3 5c-3 5-9 4-9 0 0-3 4-5 9-6l2-4-6 3c-2 0-3-1-2-3-2 2-5 3-7 3-3 0-4-2-2-5l5-9c1-2-1-3-7 4l-6 10h-4l2-2-6 2c-2 0-3-1-3-2l-5 2c-3 0-4-2-3-4h-1c-2 3-4 4-8 4-5 0-7-5-4-9l1-2c-3-2-5-5-5-8 0-2 1-5 4-7l1 2c-2 2-2 3-2 5s1 4 3 5l6-10c2-3 4-4 6-4 3 0 5 2 5 6l-1 5a13 13 0 01-14 7l-1 2c-2 3-1 6 2 6s6-2 8-6h1l4-6c2-3 5-5 7-5s4 3 4 4h2l-6 11v2c2 0 5-3 7-6h1l6-10h4l-2 2 6-3c2 0 3 2 2 5l-6 10c-1 1 0 2 1 2l7-6 6-10h4l-7 13-1 2c1 1 3-1 6-4l7-11h3l-10 17c3-1 6-3 9-7l2-3 2-3c2-4 4-5 7-5 4 0 6 4 4 8l-4 6 6-3h1l6-10h3l-1 2 5-3c2 0 4 2 2 5l-5 10v2c2 0 5-3 7-6zm119-36c-2 4-4 6-6 6v-2l5-9c2-4 6-3 4 0l-3 5zm-42 6c1 0 4-2 6-5l3-6c2-3-2-4-4 0l-6 9 1 2zm-34 8c-1 2-2 2-2 1s1-3 4-4l-2 3zm12-31c-2 0-3 1-4 3l-5 9c10 3 15-12 9-12zm74 17c-3 3-6 6-8 6v-2l13-22h-4l-6 9c0-1-1-2-3-2s-5 2-6 5l-4 6h-1l-6 6c-1 0-2-1-1-2l6-10c1-3 0-5-2-5l-6 3 2-2h-4l-6 10h-1c-2 3-5 6-7 6v-2l6-11h-2c0-1-2-4-4-4s-5 2-7 5l-3 6c-3 3-6 6-8 6v-2l4-7c1-2 0-3-1-5l-2-2v-3l-2-2c-2 2-2 4-1 6l1 1h-1l-6 8c-3 4-5 6-8 7l4-8h-3l-1 1c-2 3-4 6-7 6s-3-3-1-6l1-2h2c14 0 20-18 9-18-3 0-5 1-7 4l-6 10c-2-1-3-3-3-5l2-5-1-2-4 7c0 3 2 6 5 8l-1 2c-3 4-2 9 3 9l4-1-1 2c-5 1-8 3-8 6 0 4 6 5 8 0l3-5c4-1 8-4 12-9l6-8v1l1 2-4 7c-2 3-1 5 2 5l6-3c0 2 2 3 4 3l5-2c0 1 1 2 3 2l6-3-1 3h3l6-10c6-7 9-6 7-4l-5 9c-2 3 0 5 3 5l6-3c-1 2 1 3 3 3l5-2c0 1 1 2 3 2 3 0 7-3 10-7l-1-1zm-109-5c3-3-1-4-3 0l-3 4c1 0 4 1 6-3v-1zm-7 13c5 0 9-3 12-7l-1-1h-1c-2 3-6 6-8 6-3 0-4-2-2-5 2 1 7 0 10-5v-1c2-3 0-6-3-6s-5 2-7 5l-3 6h-1c-3 3-5 6-7 6v-2l5-10c2-3 0-5-2-5l-5 3 6-10h-4l-11 18-7 6c-1 0-2-1-1-2l8-14h4l1-2h-4l4-6h-4l-3 6h-4l-1 2h4l-8 13c-2 3 0 5 3 5l6-3-2 3h4l6-10c5-7 8-6 6-4l-5 9c-1 3 0 5 3 5l7-4c0 2 2 4 5 4zm-123-13c2-3-2-4-4 0l-2 4c1 0 3 1 5-3l1-1zm19 9l5-9c2-4 6-3 5 0l-3 6-6 5c-1 0-2-1-1-2zm58-9c2-3-2-4-4 0l-2 4c1 0 3 1 5-3l1-1zm-62 9c0 2 1 4 3 4l6-2c0 1 1 2 3 2l6-3c0 2 1 3 3 3l6-3c0 2 1 3 3 3 3 0 7-3 10-7l4-5 1-2-1 5c0 3-1 6-3 6l-2-1-2 1s0 3 4 3h1c3 0 6-2 8-4 0 2 2 4 5 4 4 0 9-3 12-7l-2-1c-3 3-6 6-9 6-2 0-4-2-2-5h1c2 1 7 0 9-5l1-1c2-3 0-6-3-6s-6 2-7 5l-4 6-5 4 1-5 3-9-3-1-1 1-8 10c-2 3-5 6-7 6v-2l8-14h-4l-7 11c-2 3-5 5-5 4v-2l7-13h-3l-6 10h-1c-3 3-5 6-7 6v-2l6-11h-2c0-1-2-4-4-4s-5 2-7 5l-4 6h-1c-2 3-5 6-8 6-2 0-4-2-2-5l4-6c2-4 6-3 4 0l-1 1h3l1-1c2-3 0-6-3-6s-5 2-7 5l-4 6c-3 3-6 6-9 6-2 0-4-2-2-5 3 1 7 0 10-5l1-1c2-3 0-6-3-6s-6 2-7 5l-4 7c-3 4-1 7 4 7 3 0 6-2 9-4 0 2 2 4 5 4s6-1 8-4zm-34-19l-3 5c4 0 6-1 8-3 2-4-2-7-5-2zm-7 22l-5-1 2-3 6-11 1 1c9 1 5 14-4 14zm10-15c7-3 8-12 0-12-2 0-4 1-6 4l-10 18-2 2c-2-4-1-9 2-11l-1-2c-8 5-6 19 7 19 12 0 17-13 10-18z" fill="#fff"/></svg>